<svg width="120" height="120" viewBox="0 0 120 120" fill="none" xmlns="http://www.w3.org/2000/svg">
<path d="M66.8443 12.1739C67.3059 12.1739 67.7485 12.3574 68.0747 12.684L79.235 23.8565C79.9142 24.5357 79.9142 25.6369 79.235 26.3161L77.3904 28.1607C75.0133 30.5378 71.1593 30.5378 68.7822 28.1607L67.5652 26.9438V53.0435C67.5652 55.925 65.2293 58.2609 62.3478 58.2609C59.4663 58.2609 57.1304 55.925 57.1304 53.0435V40L45.8328 38.5878C42.3515 38.1527 39.7391 35.1933 39.7391 31.685V13.0435C39.7391 12.5632 40.1284 12.1739 40.6087 12.1739H66.8443Z" fill="#FFD55B"/>
<path d="M39.7391 1.73913H67.5652V12.1739H39.7391V1.73913Z" fill="#FFD55B"/>
<path fill-rule="evenodd" clip-rule="evenodd" d="M38 3.47826C38 1.55727 39.5573 0 41.4783 0H65.8261C67.7471 0 69.3044 1.55727 69.3044 3.47826V11.4541L80.4648 22.6268C81.8231 23.9851 81.8232 26.1874 80.4648 27.5458L78.6202 29.3904C76.0969 31.9138 72.2791 32.3538 69.3044 30.7105V53.0435C69.3044 56.8855 66.1898 60 62.3478 60C58.5058 60 55.3913 56.8855 55.3913 53.0435V41.5353L45.6171 40.3135C41.2655 39.7696 38 36.0704 38 31.685V3.47826ZM42.3478 13.913C41.8676 13.913 41.4783 14.3024 41.4783 14.7826V31.685C41.4783 34.3163 43.4376 36.5357 46.0485 36.8621L58.4887 38.4171C58.7063 38.4443 58.8696 38.6293 58.8696 38.8485V53.0435C58.8696 54.9645 60.4268 56.5217 62.3478 56.5217C64.2688 56.5217 65.8261 54.9645 65.8261 53.0435V26.9438C65.8261 26.2403 66.2498 25.6062 66.8997 25.337C67.5496 25.0678 68.2976 25.2166 68.795 25.714L70.0119 26.9309C71.7099 28.6289 74.4627 28.6289 76.1607 26.931L77.698 25.3936C77.8677 25.2239 77.8678 24.9487 77.6982 24.7789L67.3538 14.4231C67.0276 14.0965 66.5849 13.913 66.1234 13.913H42.3478Z" fill="#101828"/>
<circle cx="44" cy="7" r="2" fill="#FFD55B"/>
</svg>
